<svg width="342" height="239" viewBox="0 0 342 239" fill="none" xmlns="http://www.w3.org/2000/svg">
<path d="M342 92.6737C342 78.4196 329.649 67.307 315.474 68.807L21.4744 99.9184C9.26544 101.21 0 111.508 0 123.785V215C0 228.255 10.7452 239 24 239H318C331.255 239 342 228.255 342 215V92.6737Z" fill="url(#paint0_linear_104_204)"/>
<g clip-path="url(#clip0_104_204)">
<path d="M129.975 186.723C129.975 186.723 129.457 186.523 128.511 186.136C118.085 181.908 55.6967 155.481 65.3299 132.554C66.9555 128.682 69.2115 126.457 71.9225 125.61L71.929 125.606C86.7073 120.973 115.064 156.941 129.975 186.723Z" fill="#96C258"/>
<g opacity="0.43">
<path opacity="0.43" d="M66.092 130.94C72.0179 134.813 77.7578 138.969 83.3564 143.304C84.7528 144.39 86.1557 145.471 87.54 146.582L91.6747 149.918C94.3987 152.182 97.1199 154.457 99.7885 156.784C102.471 159.098 105.083 161.493 107.716 163.872L111.586 167.521L113.514 169.35L115.403 171.223C120.494 176.161 125.303 181.391 129.976 186.717C127.388 184.295 124.94 181.738 122.327 179.348L118.487 175.69L114.601 172.081C109.414 167.278 104.163 162.547 98.8178 157.924C93.4974 153.269 88.0937 148.72 82.6375 144.223C77.1705 139.745 71.6813 135.29 66.092 130.94Z" fill="#467238"/>
</g>
<g style="mix-blend-mode:multiply" opacity="0.08">
<path d="M79.3845 129.944C81.3993 128.722 90.6469 135.663 87.8774 138.184C85.1169 140.713 75.7605 132.147 79.3845 129.944Z" fill="#2D480B"/>
</g>
<path d="M133.003 182.148C132.236 183.843 131.788 184.796 131.788 184.796C121.247 148.143 118.023 93.3893 139.877 99.451C140.657 99.6598 141.473 99.9564 142.323 100.334C164.06 109.994 138.976 168.902 133.003 182.148Z" fill="#96C258"/>
<g opacity="0.18">
<path opacity="0.18" d="M144.992 110.454C147.737 110.589 149.642 122.473 145.792 123.814C141.943 125.156 142.426 110.328 144.992 110.454Z" fill="#66C281"/>
<path opacity="0.18" d="M141.327 127.843C143.083 127.463 142.776 134.373 140.264 134.951C137.756 135.53 139.573 128.218 141.327 127.843Z" fill="#66C281"/>
</g>
<g opacity="0.43">
<path opacity="0.43" d="M140.681 99.694C139.543 106.749 138.551 113.815 137.597 120.885C136.659 127.954 135.789 135.036 135.054 142.126C134.276 149.216 133.643 156.317 133.106 163.427L132.71 168.762L132.384 174.1C132.096 177.658 132.041 181.228 131.788 184.796C131.601 177.659 131.573 170.503 131.948 163.361L132.06 160.684L132.234 158.007L132.585 152.654C132.902 149.092 133.187 145.528 133.578 141.975C133.954 138.418 134.399 134.869 134.86 131.324L135.623 126.015C135.883 124.244 136.174 122.482 136.46 120.719C137.603 113.661 138.978 106.642 140.681 99.694Z" fill="#93C356"/>
</g>
<path d="M131.668 185.12C131.677 185.294 131.135 184.771 130.175 183.68C121.226 173.489 75.7495 113.379 94.884 99.9127C95.2043 99.6817 95.5473 99.4679 95.9095 99.2648C119.911 85.9301 130.459 142.662 131.668 185.12Z" fill="#96C258"/>
<g opacity="0.43">
<path opacity="0.43" d="M97.9778 98.2737C101.741 105.068 105.123 112.078 108.307 119.168C111.496 126.259 114.471 133.454 117.275 140.708C120.031 147.984 122.704 155.298 125.081 162.711C126.324 166.401 127.418 170.135 128.553 173.857C129.114 175.72 129.61 177.603 130.14 179.48C130.666 181.355 131.174 183.231 131.67 185.115C129.122 177.762 126.613 170.408 123.982 163.1L122.017 157.615L119.996 152.154C119.335 150.332 118.652 148.515 117.961 146.701C117.271 144.887 116.599 143.068 115.891 141.26L113.789 135.833L111.638 130.427C110.936 128.616 110.195 126.827 109.462 125.03L107.25 119.646L106.135 116.957L104.995 114.278C104.25 112.483 103.473 110.707 102.703 108.923C101.183 105.347 99.592 101.808 97.9778 98.2737Z" fill="#467238"/>
</g>
<g opacity="0.18">
<g style="mix-blend-mode:multiply" opacity="0.24">
<path d="M107.46 102.782C110.052 101.17 117.416 112.576 115.078 114.901C112.74 117.226 105.46 104.031 107.46 102.782Z" fill="#2D480B"/>
</g>
<g style="mix-blend-mode:multiply" opacity="0.24">
<path d="M115.863 118.352C117.79 117.312 123.059 126.077 120.238 127.64C117.423 129.203 113.267 119.752 115.863 118.352Z" fill="#2D480B"/>
</g>
</g>
</g>
<g clip-path="url(#clip1_104_204)">
<path d="M149.789 163.857C141.817 163.721 115.778 164.084 114.446 150.254C111.406 118.602 128.208 71.0022 128.208 71.0022H171.142C171.142 71.0022 182.303 118.602 183.424 141.882C184.335 160.71 176.158 164.303 149.789 163.857Z" fill="#A28230"/>
<path d="M134.196 68.3281C134.196 68.3281 127.652 84.6967 122.979 121.872" stroke="#EDB31C" stroke-width="1.8391" stroke-miterlimit="10"/>
<path d="M128.585 127.973C128.585 127.973 129.518 152.618 127.621 155.935C125.725 159.253 111.809 152.618 110.705 148.67C109.597 144.722 110.39 132.463 112.917 124.848L128.585 127.973Z" fill="#9F906A"/>
<path d="M131.099 131.448C131.099 131.448 130.924 122.716 129.43 121.872C127.937 121.023 116.014 117.132 114.227 118.602C112.44 120.073 110 127.343 110 127.343C110 127.343 120.981 132.398 131.099 131.448Z" fill="#D5AB41"/>
<path d="M197.423 81.1954C202.587 81.1954 206.775 76.0441 206.775 69.6848C206.775 63.3299 202.587 58.1743 197.423 58.1743H129.93V81.1954H197.423V81.1954Z" fill="#F26E24"/>
<path d="M129.934 81.1954C124.769 81.1954 120.583 76.0419 120.583 69.6848C120.583 63.3277 124.769 58.1743 129.934 58.1743C135.099 58.1743 139.286 63.3277 139.286 69.6848C139.286 76.0419 135.099 81.1954 129.934 81.1954Z" fill="#B8A67A"/>
<path d="M129.934 78.1624C130.521 78.0924 131.09 77.8954 131.638 77.6503C132.168 77.3746 132.685 77.0639 133.149 76.6787C134.091 75.9215 134.871 74.9587 135.44 73.8645C136.001 72.7704 136.316 71.5449 136.408 70.3063C136.496 69.059 136.277 67.8291 135.974 66.6343C135.628 65.4395 135.059 64.2666 134.187 63.2949C133.324 62.3233 132.146 61.5837 130.845 61.2773C129.549 60.9622 128.165 61.0847 126.929 61.553C125.69 62.017 124.595 62.8485 123.793 63.8902C122.996 64.9231 122.466 66.1748 122.282 67.4703C122.098 68.7657 122.234 70.0919 122.681 71.313C123.123 72.5253 123.85 73.6676 124.936 74.4816C125.466 74.8974 126.097 75.2082 126.807 75.3438C126.991 75.3657 127.175 75.4095 127.354 75.4007L127.897 75.3657C128.243 75.2869 128.598 75.2125 128.9 75.0506C129.225 74.9237 129.496 74.718 129.776 74.5342C130.03 74.3197 130.293 74.114 130.499 73.8602C130.731 73.6282 130.907 73.3525 131.099 73.0899C131.187 72.9542 131.261 72.8054 131.336 72.6653C131.415 72.5253 131.485 72.3765 131.537 72.2233C131.804 71.6324 131.91 70.976 131.936 70.3282C131.94 69.6717 131.796 69.0196 131.52 68.4331C131.204 67.8598 130.841 67.3477 130.337 66.9451C129.855 66.538 129.181 66.2273 128.502 66.363C127.827 66.4855 127.337 66.9845 127.043 67.514C126.75 68.048 126.667 68.7132 126.89 69.2647C126.745 68.6913 126.921 68.0917 127.254 67.641C127.578 67.1945 128.055 66.8313 128.568 66.805C129.076 66.7744 129.549 67.0326 129.921 67.409C130.009 67.5097 130.114 67.5928 130.193 67.7066L130.429 68.0436C130.517 68.1486 130.56 68.2799 130.626 68.3937C130.683 68.5163 130.758 68.6257 130.797 68.7526C130.972 69.2472 131.055 69.768 131.012 70.2932C130.946 70.8096 130.828 71.3305 130.574 71.7944C130.521 71.9169 130.46 72.0307 130.381 72.1401C130.306 72.2496 130.245 72.3633 130.171 72.4728C130.004 72.6741 129.855 72.8929 129.658 73.0636C129.483 73.2562 129.268 73.4006 129.067 73.5582C128.848 73.6807 128.638 73.8295 128.405 73.8995C127.954 74.079 127.481 74.1446 127.065 74.0265C126.96 74.0177 126.851 73.9739 126.737 73.9258C126.627 73.8777 126.513 73.8514 126.408 73.7857C126.198 73.6588 125.983 73.5494 125.795 73.3743C125.006 72.7485 124.437 71.8119 124.113 70.814C123.784 69.8161 123.671 68.7439 123.833 67.711C123.99 66.6781 124.415 65.7021 125.063 64.8749C125.685 64.0477 126.526 63.3956 127.49 63.0236C128.449 62.6472 129.505 62.5597 130.504 62.7654C131.502 62.9667 132.426 63.4963 133.145 64.2534C133.863 65.015 134.402 65.9691 134.77 67.0107C135.103 68.0699 135.344 69.1684 135.348 70.2801C135.352 71.3874 135.146 72.499 134.717 73.5363C134.301 74.5779 133.653 75.5364 132.847 76.3505C132.045 77.1558 131.073 77.8429 129.934 78.1624Z" fill="#F26E24"/>
<g style="mix-blend-mode:multiply">
<path d="M186.569 76.9719C190.835 73.6194 203.84 78.3243 215.092 89.0076C226.345 99.691 223.559 109.972 215.679 112.545C207.799 115.119 193.275 104.917 186.744 96.6668C180.214 88.4168 181.528 80.9371 186.569 76.9719Z" fill="#B28473"/>
</g>
<path d="M215.097 39.2934C217.939 49.4078 225.688 89.4409 224.921 101.083C224.155 112.725 207.633 118.567 202.618 103.573C197.598 88.5787 203.367 48.9395 205.355 36.9738C207.432 24.4654 212.258 29.179 215.097 39.2934Z" fill="#FFCFAA"/>
<path d="M200.651 82.3158C200.87 76.9369 201.26 71.5667 201.803 66.2141C202.324 60.8571 202.973 55.5176 203.708 50.1869C204.081 47.5215 204.475 44.8605 204.878 42.2039L205.509 38.2212C205.723 36.8907 205.947 35.5777 206.284 34.2953C206.621 33.0217 207.037 31.7306 207.764 30.7196C208.128 30.2338 208.601 29.8224 209.114 29.8443C209.241 29.8268 209.372 29.8749 209.499 29.8924C209.626 29.9493 209.757 29.9799 209.884 30.0631L210.073 30.1725L210.252 30.3126C210.375 30.3957 210.484 30.5139 210.598 30.6189C211.483 31.5161 212.14 32.6891 212.71 33.8752C213.27 35.0743 213.743 36.3217 214.159 37.5865C214.987 40.1206 215.579 42.7466 216.192 45.3594C216.792 47.981 217.361 50.607 217.9 53.2418C218.991 58.5112 219.985 63.7982 220.953 69.0896C221.903 74.3853 222.788 79.6942 223.533 85.0205C223.914 87.6815 224.26 90.3513 224.523 93.0298C224.65 94.369 224.786 95.7083 224.838 97.0519L224.895 98.0585L224.926 98.5618V99.0652L224.917 101.083L224.987 99.0652L225.005 98.5618L224.991 98.0585L224.965 97.0475C224.943 95.6995 224.838 94.3559 224.742 93.0123C224.536 90.325 224.251 87.6465 223.927 84.9724C223.257 79.6285 222.447 74.3021 221.566 68.9845C220.695 63.6669 219.678 58.3756 218.623 53.093C218.093 50.4538 217.536 47.8147 216.945 45.1844C216.336 42.5584 215.763 39.9237 214.926 37.3327C214.497 36.0416 214.01 34.768 213.424 33.5338C212.823 32.3083 212.153 31.0872 211.137 30.0631C211.006 29.9406 210.879 29.8093 210.725 29.7042L210.502 29.5379L210.252 29.3935C210.095 29.2884 209.898 29.2315 209.714 29.1615C209.512 29.1265 209.315 29.0652 209.1 29.0827C208.89 29.074 208.689 29.1353 208.483 29.1878C208.303 29.2753 208.097 29.3453 207.953 29.4723L207.716 29.6473L207.515 29.8486C207.375 29.9799 207.269 30.1287 207.156 30.2732C206.319 31.4636 205.916 32.7985 205.57 34.1159C205.233 35.4376 205.009 36.7856 204.799 38.1117L204.186 42.1076C203.787 44.773 203.428 47.4427 203.091 50.1125C202.429 55.4607 201.847 60.8177 201.404 66.1835C201.002 71.5492 200.691 76.9325 200.651 82.3158Z" fill="#5F3732"/>
<path d="M136.513 166.33C136.513 166.33 130.858 181.832 126.671 214.004H195.286C195.286 214.004 197.721 189.355 195.956 166.33H136.513Z" fill="#4C2843"/>
<g opacity="0.3">
<g opacity="0.3">
<path opacity="0.3" d="M134.923 214L136.96 202.065L139.027 190.143L141.147 178.234L143.324 166.325C143.066 167.301 142.816 168.282 142.575 169.258C142.33 170.238 142.085 171.218 141.857 172.199C141.401 174.164 140.963 176.138 140.543 178.112C140.096 180.081 139.732 182.068 139.329 184.046C138.957 186.029 138.585 188.016 138.234 190.003C137.547 193.981 136.894 197.968 136.351 201.969C136.079 203.969 135.812 205.969 135.558 207.973C135.335 209.982 135.09 211.987 134.923 214Z" fill="white"/>
</g>
<g opacity="0.3">
<path opacity="0.3" d="M141.388 175.416C143.057 175.945 144.84 176.111 146.609 176.011C148.379 175.906 150.144 175.468 151.76 174.685C152.562 174.278 153.32 173.792 154.02 173.232C154.712 172.658 155.334 172.011 155.886 171.31C156.968 169.892 157.743 168.273 158.195 166.588C157.428 168.159 156.521 169.63 155.405 170.908C154.27 172.168 152.921 173.218 151.41 173.962C149.899 174.711 148.247 175.162 146.557 175.389C144.857 175.604 143.123 175.617 141.388 175.416Z" fill="white"/>
</g>
<g opacity="0.3">
<path opacity="0.3" d="M174.546 166.588C174.388 169.411 174.287 172.234 174.235 175.057C174.2 176.47 174.191 177.88 174.169 179.293C174.169 179.648 174.143 179.98 174.195 180.405C174.248 180.808 174.41 181.236 174.712 181.569C175.019 181.902 175.439 182.099 175.846 182.177C176.258 182.256 176.666 182.239 177.051 182.164C177.822 182.011 178.532 181.652 179.114 181.131C179.403 180.869 179.662 180.562 179.854 180.204C180.047 179.858 180.17 179.433 180.192 179.048C180.284 177.599 180.27 176.199 180.244 174.781C180.192 171.954 180.034 169.131 179.806 166.312C179.723 169.139 179.67 171.962 179.618 174.781C179.574 176.186 179.57 177.608 179.434 178.978C179.346 180.199 178.115 181.145 176.902 181.377C176.293 181.503 175.645 181.416 175.29 181.035C175.115 180.843 175.006 180.589 174.966 180.295C174.927 180.02 174.94 179.643 174.931 179.293C174.909 177.88 174.9 176.47 174.865 175.057C174.808 172.234 174.703 169.411 174.546 166.588Z" fill="white"/>
</g>
<g opacity="0.3">
<path opacity="0.3" d="M189.797 166.317C189.412 167.446 189.28 168.662 189.359 169.87C189.438 171.078 189.758 172.304 190.402 173.376C190.726 173.906 191.12 174.4 191.571 174.829C192.035 175.245 192.548 175.599 193.1 175.875C194.208 176.418 195.412 176.672 196.604 176.676C195.461 176.343 194.37 175.923 193.411 175.328C192.46 174.72 191.654 173.928 191.094 172.965C190.511 172.015 190.183 170.921 189.986 169.796C189.793 168.667 189.74 167.498 189.797 166.317Z" fill="white"/>
</g>
<g opacity="0.3">
<path opacity="0.3" d="M179.929 187.009C178.904 187.329 177.892 187.67 176.876 188.012C175.86 188.344 174.848 188.694 173.836 189.049C171.817 189.753 169.802 190.476 167.791 191.215L167.581 191.294L167.551 191.526C167.314 193.395 167.095 195.264 166.88 197.132C166.67 199.001 166.464 200.874 166.276 202.748C166.083 204.621 165.908 206.494 165.75 208.372C165.667 209.308 165.597 210.249 165.531 211.186C165.461 212.127 165.391 213.063 165.339 214.004C165.505 213.076 165.65 212.144 165.794 211.216C165.943 210.284 166.088 209.356 166.219 208.424C166.491 206.56 166.745 204.695 166.986 202.831C167.231 200.966 167.454 199.098 167.678 197.229C167.892 195.36 168.102 193.487 168.3 191.618L168.059 191.924C170.052 191.145 172.04 190.349 174.02 189.539C175.01 189.132 176 188.725 176.981 188.3C177.962 187.867 178.948 187.451 179.929 187.009Z" fill="white"/>
</g>
</g>
<path d="M195.728 76.8406C202.197 83.7688 202.679 117.591 200.086 133.382C197.497 149.173 196.832 170.041 196.832 170.041C196.832 170.041 173.875 185.569 134.025 167.809C134.025 167.809 136.355 135.063 133.377 115.911C130.398 96.7543 132.47 79.541 145.032 72.6828C157.603 65.8246 186.503 66.9581 195.728 76.8406Z" fill="#FFAC30"/>
<g opacity="0.3">
<path opacity="0.3" d="M201.505 115.596C201.492 116.178 201.479 116.76 201.461 117.333C197.318 118.55 192.289 119.74 186.534 120.568C181.97 121.224 176.661 121.684 170.757 121.684C159.977 121.684 147.201 120.147 133.316 115.473C133.224 114.874 133.14 114.274 133.057 113.679C162.465 123.802 187.48 119.74 201.505 115.596Z" fill="white"/>
<path opacity="0.3" d="M201.032 125.251C200.984 125.85 200.936 126.441 200.879 127.019C196.849 128.174 192.022 129.295 186.534 130.082C181.97 130.739 176.666 131.198 170.757 131.198C160.253 131.198 147.858 129.732 134.389 125.334C134.349 124.752 134.305 124.178 134.257 123.609C162.816 133.098 187.117 129.29 201.032 125.251Z" fill="white"/>
<path opacity="0.3" d="M199.815 135.107C199.723 135.698 199.639 136.297 199.552 136.901C195.802 137.925 191.431 138.893 186.534 139.597C181.97 140.254 176.661 140.713 170.757 140.713C160.367 140.713 148.12 139.273 134.818 134.984C134.805 134.42 134.792 133.851 134.774 133.286C162.294 142.293 185.816 138.98 199.815 135.107Z" fill="white"/>
<path opacity="0.3" d="M170.757 150.224C160.385 150.224 148.16 148.788 134.884 144.517C134.888 143.961 134.892 143.4 134.892 142.836C161.559 151.537 184.462 148.674 198.571 144.954C198.509 145.545 198.448 146.131 198.391 146.718C194.909 147.624 190.936 148.469 186.534 149.103C181.97 149.76 176.661 150.224 170.757 150.224Z" fill="white"/>
<path opacity="0.3" d="M134.38 161.695C160.35 170.299 182.789 167.905 197.086 164.36C197.055 164.986 197.024 165.564 196.998 166.098C193.862 166.868 190.358 167.581 186.534 168.128C181.97 168.785 176.666 169.244 170.757 169.244C160.231 169.244 147.801 167.77 134.292 163.349C134.323 162.837 134.354 162.286 134.38 161.695Z" fill="white"/>
<path opacity="0.3" d="M197.033 78.7576C197.283 79.2259 197.519 79.7379 197.747 80.2982C194.423 81.1428 190.664 81.9219 186.534 82.5171C181.97 83.1736 176.661 83.6332 170.757 83.6332C161.208 83.6332 150.087 82.4164 138.024 78.8932C138.361 78.4249 138.712 77.9698 139.084 77.5321C163.021 84.3772 183.608 82.0794 197.033 78.7576Z" fill="white"/>
<path opacity="0.3" d="M199.731 87.5678C199.832 88.1017 199.928 88.6488 200.02 89.209C196.17 90.2769 191.637 91.301 186.534 92.0319C181.97 92.6884 176.666 93.148 170.757 93.148C160.166 93.148 147.647 91.6599 134.043 87.1739C134.2 86.6574 134.362 86.1454 134.538 85.6464C162.106 94.7323 185.68 91.4455 199.731 87.5678Z" fill="white"/>
<path opacity="0.3" d="M201.479 106.09C201.496 106.659 201.505 107.232 201.518 107.805C197.366 109.026 192.316 110.226 186.534 111.057C181.97 111.714 176.661 112.173 170.757 112.173C159.71 112.173 146.565 110.549 132.282 105.599C132.251 105.022 132.229 104.448 132.212 103.879C161.966 114.362 187.318 110.274 201.479 106.09Z" fill="white"/>
<path opacity="0.3" d="M170.757 159.734C160.336 159.734 148.046 158.285 134.691 153.966C134.708 153.419 134.726 152.863 134.739 152.298C160.932 160.881 183.499 158.303 197.695 154.692C197.651 155.287 197.607 155.87 197.567 156.443C194.287 157.27 190.59 158.036 186.53 158.618C181.97 159.275 176.661 159.734 170.757 159.734Z" fill="white"/>
<path opacity="0.3" d="M200.945 96.7368C200.993 97.2926 201.041 97.8528 201.085 98.4174C197.016 99.5947 192.119 100.741 186.534 101.542C181.97 102.199 176.661 102.658 170.757 102.658C159.741 102.658 146.64 101.043 132.404 96.1284C132.453 95.577 132.505 95.0299 132.571 94.4872C161.795 104.685 186.74 100.846 200.945 96.7368Z" fill="white"/>
</g>
<path d="M133.543 155.843C134.121 155.843 134.713 155.703 135.256 155.41C136.281 154.858 160.402 141.51 163.065 109.385C165.396 81.2216 151.852 70.1487 151.191 69.6892C148.808 68.0392 143.061 72.0438 144.625 73.2911C145.111 73.6894 157.835 84.6967 155.842 108.79C153.517 136.888 135.571 146.797 133.539 147.887C131.507 148.972 132.177 156.211 133.543 155.843Z" fill="#D5AB41"/>
<path d="M184.41 70.6608C184.97 72.1357 185.115 73.812 184.524 75.2388C184.453 75.4182 184.388 75.5976 184.283 75.7596C184.182 75.9215 184.103 76.0966 183.994 76.2498C183.757 76.5474 183.538 76.8581 183.24 77.1032C182.697 77.6372 182.031 78.0398 181.348 78.3899C179.986 79.0596 178.405 79.2303 176.854 79.2521C175.295 79.2609 173.727 79.1165 172.18 78.832C169.092 78.2849 166.057 77.3045 163.293 75.8209C161.918 75.0725 160.621 74.1665 159.513 73.0592C158.966 72.499 158.475 71.8863 158.068 71.2123C157.687 70.5251 157.389 69.7898 157.214 69.0108C157.301 69.803 157.533 70.582 157.879 71.3129C158.243 72.0351 158.698 72.7047 159.22 73.3262C160.293 74.5385 161.589 75.5451 162.978 76.3636C165.763 78.0048 168.865 79.0464 172.036 79.6242C173.626 79.8999 175.242 80.0487 176.863 80.0137C177.673 79.9787 178.488 79.9218 179.294 79.7555C180.095 79.5979 180.906 79.3572 181.633 78.9458C182.347 78.5431 183.052 78.0923 183.608 77.4752C183.915 77.1907 184.138 76.8406 184.375 76.4992C184.488 76.3242 184.567 76.1316 184.664 75.9478C184.764 75.7683 184.83 75.5714 184.891 75.3701C185.4 73.7901 185.137 72.0701 184.41 70.6608Z" fill="#CB7F0F"/>
<path d="M195.96 166.33C193.525 167.367 191.006 168.177 188.457 168.868C185.912 169.56 183.332 170.124 180.73 170.553C178.129 170.973 175.514 171.297 172.886 171.477C170.257 171.674 167.625 171.726 164.993 171.652C163.674 171.643 162.365 171.547 161.046 171.477C159.736 171.354 158.422 171.267 157.117 171.087C154.498 170.807 151.905 170.317 149.321 169.8C148.037 169.503 146.745 169.24 145.475 168.881L143.565 168.369L141.673 167.787C140.398 167.433 139.163 166.964 137.91 166.549C137.28 166.347 136.675 166.085 136.053 165.853L134.196 165.152C135.405 165.686 136.605 166.255 137.836 166.745C139.071 167.218 140.293 167.743 141.55 168.159L143.434 168.798L145.339 169.367C146.605 169.765 147.901 170.067 149.185 170.4C151.769 171.008 154.384 171.507 157.021 171.84C158.335 172.037 159.662 172.124 160.985 172.26C162.312 172.334 163.639 172.44 164.966 172.457C170.284 172.593 175.614 172.159 180.835 171.162C186.048 170.137 191.203 168.671 195.96 166.33Z" fill="#80C6A7"/>
<path d="M196.468 74.963C194.243 72.0351 185.132 70.28 184.988 70.8359C184.659 72.092 186.232 72.2189 188.474 74.324C206.792 91.5461 198.632 131.605 200.594 131.991C200.831 132.034 211.825 95.1568 196.468 74.963Z" fill="#D5AB41"/>
<path d="M159.303 68.3281V17.2046H197.716C197.716 17.2046 197.716 39.1797 197.716 48.852C197.716 58.5244 191.847 64.3891 182.776 64.3891C182.776 64.3891 182.776 65.5708 182.776 71.9125C182.776 78.6788 173.052 77.6109 165.142 74.3328C160.639 72.4552 159.452 72.2102 159.303 68.3281Z" fill="#FFCFAA"/>
<path d="M159.224 38.0986C159.224 38.0986 166.644 37.0264 168.9 25.9579C168.9 25.9579 195.886 31.1135 200.296 24.6667C204.707 18.22 201.694 14.6749 193.31 12.9549C184.922 11.2349 159.316 10.5959 154.432 17.2002C149.548 23.8046 148.217 34.5054 150.727 42.5366C153.096 50.1125 159.228 48.7995 159.228 48.7995V38.0986H159.224Z" fill="#CD543D"/>
<path opacity="0.5" d="M182.776 64.3847C182.776 64.3847 176.403 64.5466 173.091 63.0236C173.091 63.0236 175.365 66.1266 182.776 66.1179V64.3847Z" fill="#B28473"/>
<path d="M149.929 27.6472C149.929 27.6472 173.683 19.2353 199.398 20.6446C199.398 20.6446 195.268 7.42279 193.674 3.76392C192.079 0.105055 179.758 -0.363245 171.62 0.201341C163.477 0.765927 154.975 3.974 153.32 7.42279C150.446 13.3925 149.929 27.6472 149.929 27.6472Z" fill="#F15231"/>
<path opacity="0.3" d="M166.456 6.2936C167.24 3.24746 177.366 0.249468 177.962 0C177.984 0 178.006 0 178.028 0C178.729 0.201325 189.718 3.74202 190.559 5.90408C191.238 7.65036 192.07 16.0666 192.07 20.4958C182.22 20.6183 172.995 21.9751 165.698 23.4763C165.702 23.4763 165.834 8.71826 166.456 6.2936Z" fill="#F3D07F"/>
<path d="M159.934 24.7761C159.934 24.7761 166.924 11.4537 172.364 9.01149C177.809 6.57371 200.988 7.04201 206.245 9.01149C211.501 10.981 202.092 21.0079 202.092 21.0079C202.092 21.0079 181.571 19.0646 159.934 24.7761Z" fill="#CF391A"/>
<path d="M186.166 35.6215C186.048 36.9957 186.109 38.3787 186.328 39.753C186.569 41.1141 186.911 42.519 187.861 43.7095C188.102 43.9983 188.409 44.2566 188.764 44.4448C188.869 44.4973 188.904 44.5279 188.952 44.5586C189 44.5848 189.048 44.6155 189.07 44.6548C189.101 44.6899 189.14 44.7205 189.149 44.7686C189.162 44.808 189.197 44.8474 189.188 44.8999C189.219 45.0881 189.14 45.3507 188.956 45.5608C188.777 45.7709 188.544 45.9678 188.269 46.1035C187.725 46.388 187.073 46.5105 186.416 46.5193C185.75 46.5499 185.084 46.4011 184.41 46.2786C185.027 46.5718 185.684 46.8344 186.394 46.9176C187.095 47.0051 187.844 46.9701 188.54 46.6769C188.891 46.5412 189.219 46.318 189.495 46.0204C189.767 45.7271 189.981 45.307 189.946 44.8168C189.951 44.6942 189.902 44.5761 189.854 44.4579C189.815 44.3354 189.736 44.2434 189.653 44.1472C189.578 44.0421 189.482 43.9765 189.385 43.9152C189.289 43.8495 189.18 43.7839 189.136 43.7576C188.891 43.622 188.667 43.4294 188.474 43.193C188.076 42.7335 187.782 42.1427 187.541 41.5343C187.292 40.9259 187.112 40.2826 186.941 39.6305C186.613 38.3175 186.381 36.9782 186.166 35.6215Z" fill="#5F3732"/>
<path d="M188.961 36.65C188.961 37.7047 189.508 38.5582 190.183 38.5582C190.857 38.5582 191.405 37.7047 191.405 36.65C191.405 35.5952 190.857 34.7374 190.183 34.7374C189.508 34.7417 188.961 35.5952 188.961 36.65Z" fill="#4C2843"/>
<path d="M176.276 36.65C176.276 37.7047 176.823 38.5582 177.498 38.5582C178.172 38.5582 178.72 37.7047 178.72 36.65C178.72 35.5952 178.172 34.7374 177.498 34.7374C176.823 34.7374 176.276 35.5952 176.276 36.65Z" fill="#4C2843"/>
<path d="M192.719 33.8491C192.544 33.3414 192.189 32.9606 191.781 32.6805C191.374 32.3873 190.892 32.2035 190.393 32.1291C189.894 32.059 189.377 32.0766 188.904 32.2429C188.426 32.3829 187.988 32.6586 187.655 33.0613L187.642 33.0788C187.629 33.0963 187.629 33.1182 187.647 33.1313C187.655 33.1401 187.668 33.1401 187.682 33.1401C188.106 33.0219 188.531 32.9169 188.965 32.8819C189.399 32.8337 189.837 32.86 190.266 32.9256C190.7 32.9825 191.12 33.1051 191.523 33.2714C191.926 33.4421 192.316 33.6521 192.662 33.9104C192.679 33.9235 192.701 33.9191 192.714 33.9016C192.723 33.8928 192.723 33.8797 192.719 33.8666V33.8491Z" fill="#5F3732"/>
<path d="M174.892 33.9102C175.238 33.6476 175.628 33.4375 176.03 33.2712C176.433 33.1049 176.858 32.9823 177.288 32.9254C177.717 32.8598 178.155 32.8335 178.588 32.8817C179.026 32.9167 179.451 33.0217 179.872 33.1399C179.894 33.1443 179.911 33.1355 179.92 33.1136C179.924 33.1005 179.92 33.0874 179.911 33.0786L179.898 33.0611C179.565 32.6584 179.132 32.3827 178.65 32.2427C178.172 32.0764 177.656 32.0545 177.161 32.1289C176.661 32.2033 176.179 32.3871 175.772 32.6803C175.365 32.9648 175.006 33.3412 174.835 33.8489L174.83 33.8664C174.822 33.8883 174.835 33.9102 174.852 33.9145C174.87 33.9189 174.883 33.9145 174.892 33.9102Z" fill="#5F3732"/>
<path d="M188.693 53.3862C188.006 53.8808 187.257 54.1652 186.486 54.3184C185.719 54.4629 184.931 54.4804 184.182 54.3272C183.429 54.1915 182.715 53.8764 182.084 53.43C181.449 52.9748 180.91 52.3796 180.393 51.7056C180.603 52.5196 181.041 53.303 181.681 53.9114C182.316 54.5285 183.153 54.9443 184.029 55.115C184.909 55.2769 185.82 55.2156 186.652 54.9224C187.48 54.6335 188.251 54.1127 188.693 53.3862Z" fill="#5F3732"/>
<path d="M179.202 51.7012C179.368 51.9025 179.587 51.9944 179.811 52.0426C180.034 52.0863 180.27 52.0688 180.494 51.9944C180.936 51.85 181.33 51.443 181.304 50.9309C181.046 50.9834 180.875 51.0491 180.7 51.0885L180.235 51.2329C179.933 51.3423 179.631 51.4517 179.202 51.7012Z" fill="#5F3732"/>
<path d="M159.452 34.7417V47.6353C159.452 47.6353 154.774 47.7491 152.803 43.5038C150.223 37.9454 154.428 32.2602 159.452 34.7417Z" fill="#B28473"/>
<path d="M158.729 36.65C158.173 36.3086 157.507 36.1466 156.815 36.186C156.644 36.2123 156.469 36.2254 156.298 36.2736C156.132 36.3348 155.952 36.3742 155.794 36.4618C155.641 36.5537 155.47 36.6368 155.339 36.755C155.207 36.8775 155.058 36.9957 154.945 37.1314C154.472 37.7003 154.305 38.3962 154.222 39.0527C154.217 39.3854 154.209 39.7136 154.244 40.0375C154.301 40.3613 154.358 40.6765 154.45 40.9872C154.537 40.6677 154.585 40.357 154.638 40.0506C154.699 39.7486 154.787 39.4554 154.839 39.1621C154.888 39.0221 154.94 38.8864 154.984 38.7464C155.028 38.6063 155.067 38.4663 155.142 38.3481C155.207 38.2255 155.256 38.0942 155.326 37.9717L155.562 37.6435C155.895 37.2277 156.359 36.9563 156.911 36.7988C157.472 36.6675 158.085 36.6281 158.729 36.65Z" fill="#5F3732"/>
<path d="M207.896 47.3902L193.844 42.7159C193.844 42.7159 191.164 37.3371 193.844 31.6868L207.896 27.7741V47.3902Z" fill="#3B5000"/>
<path d="M209.67 47.6222C205.042 47.6222 201.291 43.1291 201.291 37.5865C201.291 32.044 205.042 27.5509 209.67 27.5509C214.297 27.5509 218.049 32.044 218.049 37.5865C218.049 43.1291 214.297 47.6222 209.67 47.6222Z" fill="#64653D"/>
<path opacity="0.6" d="M209.67 46.1079C205.741 46.1079 202.556 42.2927 202.556 37.5866C202.556 32.8804 205.741 29.0652 209.67 29.0652C213.598 29.0652 216.783 32.8804 216.783 37.5866C216.783 42.2927 213.598 46.1079 209.67 46.1079Z" fill="white"/>
<g opacity="0.3">
<path opacity="0.3" d="M207.488 29.4766L215.605 42.287C215.07 43.2499 214.378 44.0727 213.572 44.7073L205.001 31.1704C205.719 30.4176 206.56 29.8355 207.488 29.4766Z" fill="white"/>
<path opacity="0.3" d="M204.028 32.409L212.311 45.4908C211.492 45.8803 210.603 46.1035 209.67 46.1035C209.039 46.1035 208.435 45.9941 207.852 45.8103L202.561 37.4553C202.583 35.5602 203.126 33.8139 204.028 32.409Z" fill="white"/>
<path opacity="0.3" d="M216.257 40.8034L208.859 29.1221C209.127 29.0871 209.398 29.0609 209.67 29.0609C210.239 29.0609 210.795 29.1484 211.325 29.3016L216.774 37.906C216.739 38.9258 216.564 39.9062 216.257 40.8034Z" fill="white"/>
</g>
<path d="M161.138 69.908C166.889 70.1268 168.12 72.8666 168.339 81.9612C168.44 86.2241 170.091 88.1454 172.588 88.1454C172.601 88.1454 172.614 88.1454 172.627 88.1454C174.918 88.1191 176.705 87.3226 176.872 80.5782L178.076 43.7357C178.076 43.2543 179.447 43.4818 179.447 43.9676L179.889 80.5826C179.889 91.4235 176.109 92.3426 173.42 92.3426C173.402 92.3426 173.381 92.3426 173.363 92.3426C168.541 92.3426 166.307 88.78 166.175 83.4318C165.987 75.6632 164.292 71.4748 161.134 70.9496C161.138 69.908 161.138 69.908 161.138 69.908Z" fill="#3B5000"/>
<path d="M187.576 47.3902L173.525 42.7159C173.525 42.7159 170.844 37.3371 173.525 31.6868L187.576 27.7741V47.3902Z" fill="#3B5000"/>
<path d="M189.35 47.6222C184.723 47.6222 180.971 43.1291 180.971 37.5865C180.971 32.044 184.723 27.5509 189.35 27.5509C193.978 27.5509 197.73 32.044 197.73 37.5865C197.73 43.1291 193.978 47.6222 189.35 47.6222Z" fill="#64653D"/>
<path opacity="0.6" d="M189.35 46.1079C185.422 46.1079 182.237 42.2927 182.237 37.5866C182.237 32.8804 185.422 29.0652 189.35 29.0652C193.279 29.0652 196.464 32.8804 196.464 37.5866C196.464 42.2927 193.279 46.1079 189.35 46.1079Z" fill="white"/>
<g opacity="0.3">
<path opacity="0.3" d="M187.169 29.4766L195.281 42.287C194.747 43.2499 194.055 44.0727 193.249 44.7073L184.677 31.1704C185.395 30.4176 186.241 29.8355 187.169 29.4766Z" fill="white"/>
<path opacity="0.3" d="M183.704 32.409L191.987 45.4908C191.168 45.8803 190.279 46.1035 189.346 46.1035C188.715 46.1035 188.111 45.9941 187.528 45.8103L182.237 37.4553C182.263 35.5602 182.807 33.8139 183.704 32.409Z" fill="white"/>
<path opacity="0.3" d="M195.938 40.8034L188.54 29.1221C188.807 29.0871 189.079 29.0609 189.35 29.0609C189.92 29.0609 190.476 29.1484 191.006 29.3016L196.451 37.906C196.42 38.9258 196.245 39.9062 195.938 40.8034Z" fill="white"/>
</g>
<g style="mix-blend-mode:multiply" opacity="0.25">
<path d="M145.037 72.6828C148.707 70.6783 153.766 69.3609 159.325 68.7395C159.316 68.6038 159.307 68.4725 159.298 68.328L163.227 47.6922C168.935 44.9174 169.592 37.836 176.223 38.1074C176.223 38.1074 178.501 97.7259 170.117 112.957C160.893 129.71 144.178 123.544 138.007 101.087C138.265 88.7057 136.075 77.5759 145.037 72.6828Z" fill="#B28473"/>
</g>
<path d="M143.158 72.4071C147.827 69.641 157.087 82.3902 164.082 96.2378C171.077 110.086 164.988 118.826 156.697 118.598C148.409 118.37 138.173 103.875 134.805 93.9095C131.437 83.9439 138.024 75.4488 143.158 72.4071Z" fill="#FFCFAA"/>
<path d="M178.799 30.0237C178.799 30.0237 175.347 37.7003 175.347 48.2042C175.347 58.7081 171.979 99.3452 168.094 110.348C164.209 121.351 148.598 123.106 146.614 107.42C144.577 91.3185 156.097 48.4931 164.077 38.3874C171.944 28.4262 174.313 29.4328 178.799 30.0237Z" fill="#FFCFAA"/>
<path d="M175.719 41.7181C175.518 43.1449 175.369 44.5804 175.286 46.0247C175.242 46.7468 175.211 47.469 175.198 48.1911L175.115 50.3488C174.979 53.2243 174.8 56.0997 174.568 58.9708C174.129 64.7129 173.652 70.4551 173.061 76.1885C172.526 81.9262 171.887 87.6509 171.16 93.3624L170.582 97.6427C170.358 99.0651 170.157 100.492 169.911 101.91C169.653 103.324 169.452 104.755 169.127 106.155C168.97 106.856 168.847 107.569 168.659 108.26L168.094 110.348C169.973 104.882 170.875 99.1395 171.773 93.4455C172.627 87.7384 173.267 82.0006 173.862 76.2629C174.388 70.5163 174.878 64.7698 175.185 59.0058C175.343 56.126 175.452 53.2418 175.509 50.3532L175.5 48.1867C175.487 47.469 175.487 46.7468 175.5 46.0291C175.527 44.5935 175.601 43.1536 175.719 41.7181Z" fill="#5F3732"/>
<path d="M147.205 92.3995C147.757 89.314 148.331 86.2372 148.992 83.1735C149.636 80.1099 150.332 77.0594 151.103 74.0264C152.654 67.9647 154.353 61.9381 156.434 56.0428C157.472 53.0973 158.549 50.1606 159.78 47.2895C160.389 45.854 161.042 44.436 161.738 43.0442C162.443 41.6568 163.179 40.2825 164.055 39.0133C164.936 37.7441 165.882 36.488 166.867 35.2844C167.862 34.0896 168.913 32.9342 170.095 31.9363C171.274 30.9515 172.614 30.0981 174.147 29.8399C175.676 29.5642 177.248 29.8793 178.803 30.0281C177.266 29.783 175.711 29.3891 174.112 29.6035C172.518 29.8049 171.059 30.6189 169.824 31.6037C168.584 32.5972 167.485 33.7438 166.447 34.9255C165.413 36.1204 164.436 37.3414 163.503 38.6282C162.592 39.9368 161.835 41.3242 161.107 42.7247C160.389 44.1296 159.723 45.5564 159.097 46.9963C157.849 49.8849 156.705 52.8128 155.694 55.7846C154.673 58.7563 153.744 61.7543 152.882 64.7742C152.019 67.7941 151.221 70.8271 150.529 73.8907C149.829 76.95 149.185 80.018 148.628 83.1079C148.081 86.1934 147.586 89.2877 147.205 92.3995Z" fill="#5F3732"/>
<path d="M175.54 49.8805C175.54 49.8805 167.673 52.2045 160.113 45.3069C160.113 45.3069 157.323 46.8387 158.098 50.4451C158.098 50.4451 165.023 57.5658 175.737 55.0405C175.741 55.0405 176.955 52.2088 175.54 49.8805Z" fill="#3B5000"/>
<path d="M161.769 54.3184C163.333 54.8173 165.212 53.2986 165.969 50.9309C166.727 48.5631 166.07 46.2391 164.506 45.7402L163.849 45.4732L160.893 53.9639L161.769 54.3184Z" fill="#D3D3D3"/>
<path d="M161.116 54.0527C159.554 53.5548 158.9 51.2303 159.656 48.8607C160.412 46.4911 162.292 44.9737 163.855 45.4716C165.417 45.9695 166.071 48.294 165.315 50.6636C164.558 53.0332 162.679 54.5506 161.116 54.0527Z" fill="white"/>
<path d="M160.288 49.062C159.701 50.8958 160.21 52.699 161.418 53.0841C162.627 53.4693 164.086 52.2963 164.673 50.4582C165.26 48.62 164.752 46.8212 163.543 46.436C162.334 46.0509 160.875 47.2282 160.288 49.062Z" fill="#FDD673"/>
<path d="M162.877 51.3729C162.838 50.8127 162.75 50.2656 162.632 49.7229C162.614 49.6398 162.531 49.5872 162.448 49.6047C162.408 49.6135 162.378 49.6354 162.356 49.6616L162.351 49.666C161.808 50.3882 161.291 51.1322 160.888 51.9594C161.545 51.316 162.089 50.5939 162.601 49.8498L162.325 49.7973C162.478 50.3313 162.654 50.8565 162.877 51.3729Z" fill="#4C2843"/>
<path d="M182.776 69.908C188.527 70.1268 189.758 72.8666 189.977 81.9613C190.078 86.2241 191.729 88.1455 194.226 88.1455C194.239 88.1455 194.252 88.1455 194.265 88.1455C196.556 88.1192 198.343 87.3227 198.509 80.5783L199.714 43.7357C199.714 43.2543 201.085 43.4819 201.085 43.9677L201.527 80.5783C201.527 91.4192 197.747 92.3383 195.058 92.3383C195.04 92.3383 195.018 92.3383 195.001 92.3383C190.178 92.3383 187.944 88.7757 187.813 83.4274C187.625 75.6589 185.93 71.4705 182.771 70.9453C182.776 69.908 182.776 69.908 182.776 69.908Z" fill="#3B5000"/>
</g>
<g clip-path="url(#clip2_104_204)">
<path d="M198.472 180.658C198.472 180.658 198.317 180.308 198.044 179.658C195.024 172.517 177.498 129.233 193.366 122.754C196.046 121.66 198.229 121.675 199.963 122.583L199.968 122.585C209.428 127.529 205.719 158.877 198.472 180.658Z" fill="#96C258"/>
<g opacity="0.43">
<path opacity="0.43" d="M194.524 122.34C195.525 127.115 196.297 131.937 196.912 136.778C197.064 137.988 197.22 139.199 197.354 140.415L197.743 144.056C197.967 146.487 198.185 148.921 198.351 151.356C198.531 153.791 198.636 156.231 198.76 158.674L198.868 162.338L198.916 164.169L198.924 166.002C198.998 170.89 198.793 175.782 198.475 180.656C198.394 178.214 198.447 175.775 198.338 173.337L198.25 169.683L198.115 166.03C197.928 161.161 197.674 156.297 197.322 151.439C196.998 146.577 196.582 141.727 196.114 136.876C195.632 132.03 195.128 127.183 194.524 122.34Z" fill="#467238"/>
</g>
<g style="mix-blend-mode:multiply" opacity="0.24">
<path d="M201.487 128.332C203.065 128.718 204.189 136.608 201.611 136.487C199.033 136.374 198.648 127.639 201.487 128.332Z" fill="#2D480B"/>
</g>
<path d="M202.177 179.904C200.977 180.356 200.294 180.602 200.294 180.602C213.02 157.602 238.132 129.347 245.829 142.952C246.107 143.434 246.36 143.976 246.59 144.574C252.476 159.875 211.543 176.359 202.177 179.904Z" fill="#96C258"/>
<g style="mix-blend-mode:multiply" opacity="0.24">
<path d="M242.959 150.807C244.231 152.211 239.368 158.93 236.838 157.708C234.308 156.486 241.77 149.495 242.959 150.807Z" fill="#2D480B"/>
</g>
<g style="mix-blend-mode:multiply" opacity="0.24">
<path d="M232.699 157.495C233.74 158.166 230.222 161.384 228.717 160.441C227.213 159.501 231.661 156.823 232.699 157.495Z" fill="#2D480B"/>
</g>
<g opacity="0.43">
<path opacity="0.43" d="M246.102 143.462C242.11 146.346 238.183 149.306 234.272 152.286C230.37 155.274 226.494 158.302 222.681 161.399C218.846 164.475 215.077 167.627 211.351 170.83L208.557 173.238L205.797 175.68C203.923 177.274 202.156 178.987 200.294 180.602C203.681 177.033 207.155 173.532 210.818 170.234L212.178 168.984L213.567 167.764L216.347 165.326C218.237 163.745 220.113 162.147 222.035 160.606C223.952 159.056 225.898 157.543 227.851 156.04L230.81 153.824C231.8 153.089 232.8 152.372 233.798 151.651C237.796 148.769 241.886 146.018 246.102 143.462Z" fill="#467238"/>
</g>
<path d="M200.078 180.702C199.997 180.791 199.988 180.272 200.052 179.272C200.657 169.945 207.789 118.487 223.677 121.25C223.945 121.293 224.217 121.356 224.492 121.434C242.688 126.633 220.18 159.421 200.078 180.702Z" fill="#96C258"/>
<g opacity="0.43">
<path opacity="0.43" d="M225.983 121.959C224.506 127.104 222.738 132.168 220.835 137.175C218.933 142.185 216.876 147.141 214.707 152.044C212.505 156.932 210.243 161.799 207.789 166.571C206.596 168.975 205.31 171.327 204.049 173.695C203.415 174.876 202.738 176.035 202.082 177.208C201.424 178.378 200.758 179.54 200.081 180.7C202.423 175.875 204.784 171.069 207.064 166.225L208.779 162.594L210.455 158.948C211.021 157.738 211.574 156.519 212.121 155.299C212.669 154.078 213.228 152.864 213.764 151.638L215.384 147.969L216.971 144.286C217.511 143.061 218.022 141.828 218.54 140.595L220.086 136.893L220.853 135.039L221.603 133.178C222.115 131.941 222.602 130.696 223.097 129.452C224.098 126.968 225.048 124.468 225.983 121.959Z" fill="#467238"/>
</g>
<g style="mix-blend-mode:multiply" opacity="0.24">
<path d="M228.407 128.777C230.456 129.254 228.486 138.402 226.214 138.396C223.941 138.39 226.824 128.411 228.407 128.777Z" fill="#2D480B"/>
</g>
<g style="mix-blend-mode:multiply" opacity="0.24">
<path d="M224.914 140.46C226.36 140.892 224.656 147.732 222.52 147.119C220.387 146.509 222.967 139.877 224.914 140.46Z" fill="#78A144"/>
</g>
</g>
<g clip-path="url(#clip3_104_204)">
<path d="M57.954 18.2166C57.954 18.2166 49.8195 22.9468 47.3345 23.2029C44.8496 23.4589 46.046 20.9196 47.3345 19.8597C47.3345 19.8597 44.4389 19.9735 44.0283 18.7359C43.6177 17.5053 48.3965 16.6233 48.3965 16.6233C48.3965 16.6233 45.8195 15.791 46.5062 14.2262C47.1929 12.6542 56.6655 15.471 56.6655 15.471L57.954 18.2166Z" fill="#79E0B2"/>
<g opacity="0.5">
<g opacity="0.5">
<path opacity="0.5" d="M56.446 17.0927C55.0443 17.0429 53.6921 16.794 52.3469 16.4952C51.0089 16.1751 49.6779 15.8124 48.3965 15.2504C49.7983 15.3002 51.1505 15.5492 52.4956 15.8479C53.8337 16.168 55.1646 16.5308 56.446 17.0927Z" fill="#082116"/>
</g>
<g opacity="0.5">
<path opacity="0.5" d="M45.2602 18.7359C47.1363 18.3091 48.9912 18.0886 50.846 17.9179C52.7009 17.7685 54.5558 17.6618 56.446 17.7614C54.6053 18.1881 52.7292 18.4087 50.8602 18.5794C48.9841 18.7359 47.108 18.8354 45.2602 18.7359Z" fill="#082116"/>
</g>
<g opacity="0.5">
<path opacity="0.5" d="M47.377 22.0078C48.8496 21.1756 50.3929 20.5354 51.9505 19.9379C53.5151 19.3618 55.1009 18.8283 56.7575 18.4869C55.285 19.3191 53.7416 19.9664 52.1841 20.5568C50.6195 21.1329 49.0337 21.6664 47.377 22.0078Z" fill="#082116"/>
</g>
</g>
<path d="M75.3274 14.8237C75.3274 14.8237 83.6035 17.9605 87.3274 15.7484C87.3274 15.7484 89.1681 18.5651 86.7752 20.1798C86.7752 20.1798 88.0637 23.8288 84.1982 24.846C84.1982 24.846 83.4619 28.6301 79.2354 27.5703C79.2354 27.5703 75.2849 31.5394 69.7699 26.233L75.3274 14.8237Z" fill="#79E0B2"/>
<g opacity="0.5">
<g opacity="0.5">
<path opacity="0.5" d="M86.7682 20.1798C86.2655 20.6137 85.6071 20.82 84.977 20.948C84.3328 21.076 83.6814 21.0903 83.0372 21.0547C82.3929 21.0049 81.7558 20.8911 81.1398 20.7133C80.5239 20.5283 79.9292 20.2936 79.3699 19.9522C80.0213 19.9308 80.6443 19.9806 81.2673 20.0304C81.8832 20.066 82.4921 20.1371 83.1009 20.1655C83.7098 20.2225 84.3115 20.2438 84.9204 20.258C85.5221 20.2651 86.131 20.2722 86.7682 20.1798Z" fill="black"/>
</g>
<g opacity="0.5">
<path opacity="0.5" d="M84.1983 24.846C83.731 25.2372 83.1222 25.4079 82.5346 25.479C81.9328 25.5573 81.331 25.4933 80.7505 25.3794C80.1699 25.2585 79.6107 25.0451 79.0868 24.7819C78.5629 24.5116 78.0815 24.1773 77.6567 23.7505C77.954 23.7861 78.2372 23.8644 78.5133 23.9284C78.7894 23.9924 79.0655 24.0564 79.3346 24.1347C79.8797 24.2556 80.4036 24.4192 80.9345 24.5116C81.4655 24.6326 81.9894 24.725 82.5275 24.7891C83.0655 24.846 83.6107 24.8886 84.1983 24.846Z" fill="black"/>
</g>
<g opacity="0.5">
<path opacity="0.5" d="M79.2354 27.5703C78.931 27.741 78.5982 27.7552 78.2797 27.7196C77.9611 27.6841 77.6637 27.5632 77.3805 27.4209C76.8496 27.0937 76.3965 26.6029 76.2761 25.9343C76.6089 26.0267 76.8637 26.1477 77.1186 26.2686C77.3664 26.3895 77.6 26.5175 77.8266 26.6527C78.2797 26.9159 78.6974 27.1791 79.2354 27.5703Z" fill="black"/>
</g>
</g>
<path d="M70.5912 8.34365C74.5558 8.26541 80.3327 16.2249 76.269 22.5698C72.2053 28.9147 60.3965 30.2733 56.0708 16.5877C56.0708 16.5877 61.5717 16.4597 63.7381 14.1693C65.9044 11.8717 66.0814 8.42901 70.5912 8.34365Z" fill="#FFD470"/>
<path opacity="0.3" d="M58.0885 21.1401C62.5416 24.661 66.3646 22.8401 71.1009 18.2451C73.4867 15.9333 76.6726 16.0827 77.6283 17.0572C77.777 18.8781 77.4159 20.7844 76.2761 22.5627C72.7363 28.0895 63.3204 29.8322 58.0885 21.1401Z" fill="white"/>
<path d="M74.9593 11.9144L77.9894 11.3596L75.5044 13.2517C75.5115 13.2517 74.9734 13.0027 74.9593 11.9144Z" fill="#C44961"/>
<path d="M72.4319 11.8219C72.1912 11.4876 71.9788 11.1818 71.7593 10.947C71.5328 10.7123 71.3275 10.5771 71.108 10.5629C70.8673 10.5274 70.662 10.5558 70.4354 10.7265C70.2089 10.9043 69.9894 11.196 69.7629 11.5445C69.6354 11.1462 69.6567 10.6981 69.9045 10.2855C70.0177 10.0792 70.2301 9.89429 70.4708 9.78759C70.7186 9.68801 70.9735 9.65245 71.2354 9.68801C71.7735 9.75914 72.1841 10.1788 72.3398 10.5843C72.5168 10.9897 72.5452 11.4165 72.4319 11.8219Z" fill="#754368"/>
<path d="M66.3646 10.3282C66.3646 10.3282 63.2425 9.88007 61.3522 6.28086C59.469 2.68164 58.9663 1.30497e-05 58.9663 1.30497e-05C58.9663 1.30497e-05 56.7292 -0.0924571 56.0778 3.22935C56.0778 3.22935 52.9486 2.53938 53.2672 6.27374C53.2672 6.27374 50.4141 7.35493 51.7522 10.6127C51.7522 10.6127 50.5132 15.4638 56.0778 16.8011C60.9203 17.9747 66.1805 15.4852 66.3646 10.3282Z" fill="#79E0B2"/>
<g opacity="0.5">
<g opacity="0.5">
<path opacity="0.5" d="M56.0708 3.22937C56.6159 4.63776 57.2106 5.93234 57.9965 7.12022C58.3717 7.71772 58.8035 8.27965 59.2779 8.82025C59.7381 9.37507 60.2761 9.85164 60.8071 10.4065C60.092 10.1717 59.3912 9.81608 58.8035 9.32527C58.1947 8.85581 57.685 8.25831 57.2531 7.61102C56.8354 6.95662 56.5027 6.25243 56.2974 5.51267C56.092 4.77291 55.9858 3.99758 56.0708 3.22937Z" fill="black"/>
</g>
<g opacity="0.5">
<path opacity="0.5" d="M53.2672 6.28088C54.0955 7.3763 54.8389 8.42192 55.6672 9.40352C56.0708 9.90855 56.5168 10.3567 56.9699 10.819C57.423 11.2814 57.9256 11.6797 58.4424 12.1492C57.7699 12.0211 57.1115 11.7508 56.538 11.3667C55.9575 10.9826 55.4336 10.5132 54.9946 9.9868C54.5557 9.45331 54.1663 8.87716 53.8761 8.25832C53.5787 7.62525 53.3451 6.97085 53.2672 6.28088Z" fill="black"/>
</g>
<g opacity="0.5">
<path opacity="0.5" d="M51.7451 10.6199C52.538 11.2458 53.2672 11.7437 54.0389 12.2345C54.4212 12.4764 54.8177 12.7111 55.2141 12.953C55.6177 13.1948 56.0283 13.4295 56.4389 13.7425C55.4195 13.835 54.4283 13.5078 53.5646 12.9814C53.1469 12.6969 52.7433 12.3768 52.4248 11.9785C52.1133 11.5873 51.8372 11.1391 51.7451 10.6199Z" fill="black"/>
</g>
</g>
</g>
<defs>
<linearGradient id="paint0_linear_104_204" x1="171" y1="66" x2="171" y2="239" gradientUnits="userSpaceOnUse">
<stop stop-color="#FFEEB3"/>
<stop offset="1" stop-color="#FFE588"/>
</linearGradient>
<clipPath id="clip0_104_204">
<rect width="81.9673" height="86.8608" fill="white" transform="translate(78.4814 83) rotate(15)"/>
</clipPath>
<clipPath id="clip1_104_204">
<rect width="115" height="214" fill="white" transform="translate(110)"/>
</clipPath>
<clipPath id="clip2_104_204">
<rect width="56.4926" height="59.8653" fill="white" transform="translate(223.925 105.014) rotate(60)"/>
</clipPath>
<clipPath id="clip3_104_204">
<rect width="44" height="29" fill="white" transform="translate(44)"/>
</clipPath>
</defs>
</svg>
